<?xml version="1.0" standalone="no"?>
<!DOCTYPE svg PUBLIC "-//W3C//DTD SVG 20010904//EN"
 "http://www.w3.org/TR/2001/REC-SVG-20010904/DTD/svg10.dtd">
<svg version="1.0" xmlns="http://www.w3.org/2000/svg"
 width="235.000000pt" height="237.000000pt" viewBox="0 0 235.000000 237.000000"
 preserveAspectRatio="xMidYMid meet">

<g transform="translate(0.000000,237.000000) scale(0.100000,-0.100000)"
fill="#000000" stroke="none">
<path d="M915 2333 l0 -38 -110 -5 -110 -5 -3 -32 -3 -32 -72 -3 -72 -3 0 -62
c0 -57 1 -60 17 -46 11 10 31 14 62 11 26 -2 46 0 46 4 0 4 -26 9 -57 11 l-58
3 62 2 63 2 -3 -31 -2 -31 -70 0 c-61 0 -70 2 -71 18 -1 11 -2 25 -3 32 -1 17
-60 15 -67 -3 -11 -27 10 -109 28 -113 19 -4 19 25 -1 37 -10 6 -8 10 5 15 9
4 22 2 28 -4 7 -7 7 -10 -1 -10 -12 0 -12 -18 0 -37 6 -10 -1 -13 -27 -13 -33
0 -36 2 -36 31 0 29 -2 30 -38 27 -34 -3 -37 -6 -40 -35 -3 -32 -2 -33 32 -33
34 0 36 -2 36 -35 0 -33 -2 -35 -35 -35 -33 0 -35 2 -35 36 0 34 -1 35 -32 32
-30 -3 -33 -6 -36 -40 -3 -36 -2 -38 27 -38 29 0 31 -2 29 -37 -1 -36 -1 -36
-5 -7 -3 27 -8 31 -31 31 -26 0 -26 0 -5 -10 30 -13 27 -45 -4 -39 -14 3 -23
11 -22 21 3 37 -1 42 -33 39 -29 -3 -33 -7 -36 -35 -3 -30 -1 -33 22 -33 14 0
26 -4 26 -9 0 -6 -9 -8 -20 -6 -18 4 -20 -1 -20 -63 1 -51 3 -63 11 -49 6 9 8
26 4 36 -3 11 -1 23 6 26 8 6 10 -4 7 -34 -2 -25 1 -41 7 -41 7 0 9 19 5 55
-4 34 -2 56 5 58 6 3 9 -18 8 -57 -1 -60 -2 -61 -32 -64 l-31 -3 0 71 0 71
-37 -3 -38 -3 -3 -72 -3 -73 -29 0 c-16 0 -31 -4 -34 -8 -3 -5 -6 -58 -7 -119
l-1 -110 -39 7 -39 7 0 -266 0 -266 37 0 38 0 5 -110 5 -110 30 -5 c29 -5 30
-7 35 -75 l5 -70 35 -5 c31 -4 36 -9 40 -40 4 -31 9 -36 40 -40 31 -4 36 -9
40 -40 4 -31 9 -35 37 -38 28 -3 32 -7 35 -35 3 -28 7 -33 38 -37 31 -4 36 -9
40 -40 4 -31 9 -36 40 -40 31 -4 36 -9 40 -40 l5 -35 70 -5 c68 -5 70 -6 75
-35 l5 -30 110 -5 110 -5 3 -43 3 -42 259 0 259 0 3 43 3 42 110 5 110 5 3 32
3 32 72 3 72 3 3 38 3 37 -71 0 -71 0 3 31 c3 31 4 32 56 33 28 0 52 -2 52 -6
0 -3 9 -4 20 -1 14 4 20 0 20 -11 0 -9 -1 -16 -2 -17 -2 0 -24 -3 -51 -6 -42
-4 -46 -3 -40 13 5 14 2 16 -15 12 -13 -4 -22 -1 -22 5 0 6 -3 7 -6 4 -4 -4
-2 -13 5 -21 9 -11 9 -15 -1 -20 -7 -3 20 -5 60 -3 39 1 72 -1 72 -6 0 -4 15
-7 33 -5 27 3 33 7 35 32 4 31 -13 49 -40 40 -9 -2 -19 0 -23 5 -4 7 5 9 24 7
18 -2 31 1 31 8 0 6 4 6 9 -2 5 -8 22 -12 42 -10 30 3 34 7 37 35 3 32 2 33
-32 33 -34 0 -36 2 -36 35 0 33 2 35 35 35 33 0 35 -2 35 -36 0 -34 1 -35 33
-32 29 3 32 6 35 41 3 35 2 37 -27 37 -29 0 -31 2 -30 38 l1 37 9 -30 c6 -21
15 -31 29 -32 20 -2 20 -1 -2 17 -13 11 -17 19 -10 20 6 0 12 -4 12 -10 0 -5
6 -10 13 -10 6 1 1 10 -12 20 -16 14 -19 20 -8 20 16 0 39 -23 36 -36 -5 -28
3 -35 34 -32 28 3 32 7 35 36 3 26 0 32 -17 32 -42 0 -46 8 -44 78 l1 67 31 3
31 3 0 -71 0 -71 38 3 37 3 3 73 3 72 29 0 c16 0 31 4 34 8 3 5 6 58 7 119 l1
110 34 -7 34 -8 0 267 0 266 -32 0 -33 0 -5 110 -5 110 -35 5 -34 5 -1 70 0
70 -35 5 c-31 4 -36 9 -40 40 -4 31 -9 36 -40 40 -31 4 -36 9 -40 40 -4 31 -9
35 -37 38 -28 3 -32 7 -35 35 -3 28 -7 33 -38 37 -31 4 -36 9 -40 40 -4 31 -9
36 -40 40 -31 4 -36 9 -40 40 l-5 35 -70 5 c-68 5 -70 6 -75 35 l-5 30 -110 5
-110 5 0 38 0 37 -265 0 -265 0 0 -37z m-163 -299 c2 -19 0 -34 -4 -34 -8 0
-12 15 -9 38 2 15 -15 16 -25 0 -5 -7 -2 -9 7 -4 8 4 6 1 -4 -7 -18 -15 -18
-15 0 -20 14 -4 14 -5 -4 -6 -20 -1 -23 4 -23 33 0 32 2 35 29 34 25 -1 30 -5
33 -34z m-74 -81 c3 -32 2 -33 -32 -33 -35 0 -36 1 -36 36 0 34 1 35 33 32 28
-3 32 -7 35 -35z m-78 -78 c0 -34 -12 -46 -25 -25 -5 8 -11 8 -19 1 -17 -14
-26 -4 -26 31 0 25 3 28 35 28 33 0 35 -2 35 -35z m230 5 c0 -30 -23 -43 -33
-17 -3 7 -6 4 -6 -6 -2 -31 -26 -13 -29 21 -3 31 -2 32 32 32 33 0 36 -2 36
-30z m-305 -77 c3 -31 1 -33 -31 -33 -32 0 -34 2 -34 36 0 34 1 35 31 32 28
-3 32 -7 34 -35z m225 2 c0 -32 -2 -35 -30 -35 -28 0 -30 3 -30 35 0 32 2 35
30 35 28 0 30 -3 30 -35z m-300 -80 c0 -33 -2 -35 -35 -35 -33 0 -35 2 -35 35
0 33 2 35 35 35 33 0 35 -2 35 -35z m230 0 c0 -33 -2 -35 -35 -35 -33 0 -35 2
-35 35 0 33 2 35 35 35 33 0 35 -2 35 -35z m221 26 c-7 -5 -22 -6 -32 -4 -16
4 -19 0 -18 -23 1 -29 1 -29 8 -4 5 17 9 21 15 12 4 -6 4 -18 1 -24 -4 -7 2
-3 13 9 l20 22 0 -24 c0 -22 -5 -25 -34 -25 -32 0 -34 2 -34 35 0 34 1 35 38
35 24 0 32 -3 23 -9z m-531 -109 c0 -21 -4 -32 -8 -27 -4 6 -18 10 -32 10 -20
0 -26 6 -28 27 -3 24 0 26 32 26 35 0 36 -1 36 -36z m180 28 c-12 -7 -8 -10
15 -10 23 0 27 3 15 10 -13 8 -12 10 3 10 12 0 17 -8 17 -30 0 -26 -4 -30 -26
-30 -14 0 -23 4 -19 10 3 5 12 7 20 3 8 -3 15 0 15 6 0 18 -38 13 -49 -6 -9
-15 -10 -12 -11 15 0 24 4 32 18 32 14 0 15 -2 2 -10z m280 -20 c0 -16 -5 -30
-11 -30 -6 0 -9 7 -5 15 3 8 1 15 -4 15 -6 0 -10 -9 -10 -21 0 -15 -4 -19 -16
-15 -9 3 -18 6 -20 6 -2 0 -4 14 -4 30 0 28 3 30 35 30 32 0 35 -2 35 -30z
m-309 -52 c1 -7 0 -17 -1 -23 -1 -5 -3 -16 -3 -22 0 -7 -13 -13 -29 -13 -25 0
-28 3 -28 35 0 32 2 35 30 35 17 0 31 -6 31 -12z m227 6 c-4 -3 -14 -7 -25 -8
-11 -2 -19 -12 -20 -27 -1 -13 1 -17 3 -8 5 16 43 33 53 24 2 -3 0 -5 -6 -5
-6 0 -9 -9 -6 -20 5 -17 0 -20 -26 -20 -29 0 -31 2 -31 35 0 33 2 35 32 35 17
0 29 -3 26 -6z m-68 -107 c0 -32 -2 -34 -35 -35 -34 -1 -35 0 -35 33 0 33 2
35 35 35 33 0 35 -2 35 -33z m540 -307 l0 -40 -40 0 -40 0 0 40 0 40 40 0 40
0 0 -40z m530 -307 c0 -31 -2 -33 -35 -33 -33 0 -35 2 -35 34 0 32 2 34 35 33
33 -1 35 -3 35 -34z m-80 -78 c0 -32 -2 -35 -30 -35 -16 0 -30 5 -30 10 0 6 3
9 8 9 28 -5 42 3 41 24 -1 16 -2 18 -6 5 -3 -11 -14 -18 -28 -18 -18 0 -22 4
-18 20 4 14 14 20 34 20 26 0 29 -3 29 -35z m230 0 c0 -32 -3 -35 -29 -35 -16
0 -31 6 -35 15 -6 17 2 19 24 5 9 -6 17 -5 22 3 14 22 8 37 -14 37 -23 -1 -23
-1 -3 -17 18 -14 18 -15 2 -9 -10 3 -21 6 -23 6 -2 0 -4 7 -4 15 0 10 10 15
30 15 28 0 30 -3 30 -35z m-316 -41 c10 -4 16 -18 16 -35 0 -26 -3 -29 -35
-29 -32 0 -35 3 -35 28 0 41 15 51 54 36z m468 -18 c19 -28 8 -46 -27 -46 -33
0 -35 2 -35 34 0 31 2 33 28 28 15 -3 30 -10 34 -16z m-222 -16 c0 -28 -3 -30
-35 -30 -32 0 -35 2 -35 30 0 28 3 30 35 30 32 0 35 -2 35 -30z m-310 -75 c0
-34 -1 -35 -37 -33 -37 1 -37 1 -5 5 26 4 32 9 32 29 0 19 -5 23 -24 22 -17
-2 -23 -7 -21 -20 2 -10 0 -18 -4 -18 -5 0 -8 11 -8 25 0 22 4 25 33 25 32 0
34 -2 34 -35z m230 0 c0 -33 -2 -35 -35 -35 -33 0 -35 2 -35 35 0 33 2 35 35
35 33 0 35 -2 35 -35z m230 0 c0 -33 -2 -35 -35 -35 -33 0 -35 2 -35 35 0 33
2 35 35 35 33 0 35 -2 35 -35z m-480 -1 c0 -8 -5 -12 -10 -9 -6 4 -8 11 -5 16
9 14 15 11 15 -7z m170 -77 c0 -30 -3 -33 -32 -34 l-33 -1 28 11 c17 7 27 18
26 31 0 21 -1 21 -8 1 l-8 -20 -5 20 c-5 18 -6 18 -7 -2 -1 -13 -7 -23 -16
-23 -18 0 -20 16 -4 26 8 4 7 9 -2 15 -9 6 -1 9 24 9 35 0 37 -2 37 -33z m230
-3 c0 -34 -1 -35 -32 -32 -29 3 -33 7 -34 36 -2 30 0 32 32 32 32 0 34 -2 34
-36z m-302 -57 c5 -24 -15 -21 -21 4 -3 13 -1 19 6 16 7 -2 13 -11 15 -20z
m230 -16 c3 -30 2 -31 -32 -31 -34 0 -36 2 -36 35 0 33 1 35 33 31 28 -3 32
-7 35 -35z m-275 22 c-7 -2 -13 -14 -13 -25 0 -17 4 -19 30 -13 19 4 30 3 30
-4 0 -6 -16 -11 -35 -11 -32 0 -35 2 -35 30 0 22 5 30 18 29 10 0 12 -3 5 -6z
m197 -98 c0 -33 -2 -35 -35 -35 -33 0 -35 2 -35 35 0 33 2 35 35 35 33 0 35
-2 35 -35z m-83 -80 c1 -33 -1 -35 -27 -33 -24 2 -29 7 -32 35 -4 31 -2 33 27
33 29 0 31 -3 32 -35z m232 18 c0 -12 -2 -13 -6 -5 -4 10 -11 9 -31 -4 -23
-15 -25 -15 -14 -2 11 14 10 17 -5 21 -10 3 -1 5 20 6 29 1 37 -3 36 -16z"/>
<path d="M650 1970 c11 -7 11 -10 2 -10 -7 0 -10 -4 -7 -10 3 -5 2 -10 -4 -10
-5 0 -12 8 -14 18 -4 13 -5 11 -6 -5 -1 -27 33 -33 43 -7 10 26 7 34 -11 34
-15 0 -16 -2 -3 -10z"/>
<path d="M546 1884 c-4 -9 -4 -19 -1 -22 3 -3 5 0 5 7 0 6 10 16 23 21 22 9
22 9 1 9 -12 1 -25 -6 -28 -15z"/>
<path d="M570 1871 c0 -6 5 -13 10 -16 6 -3 10 1 10 9 0 9 -4 16 -10 16 -5 0
-10 -4 -10 -9z"/>
<path d="M779 1898 c0 -2 -2 -14 -4 -28 -4 -25 -4 -25 7 -2 6 12 15 22 20 22
5 0 7 -4 3 -9 -3 -5 -1 -12 5 -16 5 -3 10 3 10 14 0 14 -6 21 -20 21 -11 0
-20 -1 -21 -2z"/>
<path d="M488 1805 c2 -14 11 -25 19 -25 10 0 11 5 4 19 -6 10 -7 21 -4 25 3
3 -1 6 -9 6 -11 0 -14 -7 -10 -25z"/>
<path d="M471 1794 c0 -11 3 -14 6 -6 3 7 2 16 -1 19 -3 4 -6 -2 -5 -13z"/>
<path d="M730 1820 c0 -5 -7 -7 -15 -4 -8 4 -15 1 -15 -6 0 -6 5 -8 10 -5 6 3
10 2 10 -4 0 -5 -6 -12 -12 -14 -7 -3 -3 -6 8 -6 16 -1 22 5 22 24 0 14 -2 25
-4 25 -2 0 -4 -4 -4 -10z"/>
<path d="M408 1743 c-10 -2 -18 -13 -18 -24 0 -29 45 -22 48 8 2 23 0 24 -30
16z"/>
<path d="M622 1725 c2 -26 7 -29 31 -19 13 5 13 8 -4 25 -25 25 -29 24 -27 -6z"/>
<path d="M650 1740 c0 -5 5 -10 11 -10 5 0 7 5 4 10 -3 6 -8 10 -11 10 -2 0
-4 -4 -4 -10z"/>
<path d="M315 1660 c3 -5 11 -10 16 -10 6 0 7 5 4 10 -3 6 -11 10 -16 10 -6 0
-7 -4 -4 -10z"/>
<path d="M338 1648 c-15 -15 -16 -18 -3 -18 9 0 18 7 22 15 8 23 0 24 -19 3z"/>
<path d="M776 1654 c-4 -9 -4 -19 -1 -22 3 -3 5 0 5 7 0 6 10 16 23 21 22 9
22 9 1 9 -12 1 -25 -6 -28 -15z"/>
<path d="M483 1593 c-7 -3 -12 -14 -12 -26 1 -17 2 -18 6 -4 2 9 9 17 14 17 6
0 7 -6 3 -12 -6 -10 -4 -10 7 0 15 14 2 32 -18 25z"/>
<path d="M720 1560 c0 -5 5 -10 10 -10 6 0 10 5 10 10 0 6 -4 10 -10 10 -5 0
-10 -4 -10 -10z"/>
<path d="M620 1505 c0 -8 4 -15 8 -15 5 0 9 7 9 15 0 8 -4 15 -9 15 -4 0 -8
-7 -8 -15z"/>
<path d="M650 1509 c0 -8 5 -21 10 -29 8 -12 9 -10 7 7 -4 26 -17 43 -17 22z"/>
<path d="M1695 886 c6 -32 6 -32 15 -11 7 17 9 17 9 3 1 -20 21 -25 21 -5 0
20 -14 34 -32 34 -12 0 -16 -7 -13 -21z"/>
<path d="M1625 820 c-3 -5 -1 -10 4 -10 6 0 11 5 11 10 0 6 -2 10 -4 10 -3 0
-8 -4 -11 -10z"/>
<path d="M1540 743 c0 -14 2 -15 9 -5 7 11 9 11 14 -2 4 -9 -1 -16 -11 -19
-13 -4 -12 -5 4 -6 20 -1 41 25 29 37 -3 3 -5 -1 -5 -9 -1 -10 -3 -9 -11 4 -5
9 -14 17 -19 17 -6 0 -10 -8 -10 -17z"/>
<path d="M2000 729 c0 -14 7 -19 25 -19 21 0 24 3 17 17 -14 24 -42 25 -42 2z"/>
<path d="M1770 739 c0 -11 37 -12 43 -1 3 4 -6 8 -19 8 -13 1 -24 -2 -24 -7z"/>
<path d="M1710 663 c0 -15 -2 -16 -10 -3 -8 12 -10 12 -10 -5 0 -14 7 -20 25
-21 20 -2 25 3 25 22 0 15 -6 24 -15 24 -8 0 -15 -8 -15 -17z"/>
<path d="M1932 668 c-20 -20 -14 -35 13 -35 20 0 25 5 25 23 0 26 -19 31 -38
12z"/>
<path d="M1853 578 c2 -12 8 -23 14 -25 6 -2 8 7 6 22 -6 31 -24 34 -20 3z"/>
<path d="M1881 584 c0 -11 3 -14 6 -6 3 7 2 16 -1 19 -3 4 -6 -2 -5 -13z"/>
<path d="M1773 515 c0 -8 4 -15 9 -15 4 0 8 4 8 9 0 6 -4 12 -8 15 -5 3 -9 -1
-9 -9z"/>
<path d="M1810 511 c0 -6 -10 -16 -22 -21 l-23 -9 23 0 c22 -1 41 23 28 36 -3
4 -6 1 -6 -6z"/>
<path d="M1697 443 c-4 -3 -1 -13 6 -21 9 -13 9 -14 0 -8 -7 4 -13 2 -13 -3 0
-6 7 -11 16 -11 11 0 15 6 11 20 -3 11 -1 20 3 20 5 0 11 -10 13 -22 4 -20 4
-19 6 5 1 20 -4 27 -17 27 -10 0 -22 -3 -25 -7z"/>
<path d="M1624 351 c0 -11 4 -17 8 -15 4 3 8 0 8 -5 0 -6 5 -11 11 -11 8 0 7
5 -2 16 -10 13 -10 17 2 25 11 7 10 9 -6 9 -14 0 -21 -7 -21 -19z"/>
<path d="M570 2098 c0 -3 23 -8 50 -10 28 -1 50 0 50 4 0 3 -23 8 -50 10 -28
1 -50 0 -50 -4z"/>
<path d="M399 1978 c-10 -34 -6 -44 16 -46 19 -1 25 3 25 17 0 18 -36 43 -41
29z m31 -29 c0 -5 -4 -9 -8 -9 -5 0 -9 7 -9 15 0 8 4 12 9 9 4 -3 8 -9 8 -15z"/>
<path d="M315 1870 c-3 -5 1 -10 10 -10 9 0 13 5 10 10 -3 6 -8 10 -10 10 -2
0 -7 -4 -10 -10z"/>
<path d="M2085 630 c0 -51 10 -67 18 -27 l4 22 2 -23 c1 -15 -7 -26 -21 -33
-23 -10 -23 -10 -1 -5 12 2 24 -1 26 -8 2 -6 4 21 4 59 1 39 -1 62 -4 52 -4
-17 -6 -17 -16 -3 -10 13 -12 7 -12 -34z"/>
<path d="M1932 442 c-18 -12 -4 -42 20 -42 14 0 19 6 16 22 -3 24 -17 32 -36
20z m13 -12 c-3 -5 -1 -10 6 -10 7 0 10 -3 6 -6 -9 -9 -28 6 -22 17 4 5 8 9
11 9 3 0 2 -4 -1 -10z"/>
<path d="M1800 279 c0 -5 5 -7 10 -4 6 3 10 8 10 11 0 2 -4 4 -10 4 -5 0 -10
-5 -10 -11z"/>
</g>
</svg>
